<svg version="1.1" id="Layer_1" xmlns="http://www.w3.org/2000/svg" x="0" y="0" viewBox="0 0 140 46.8" xml:space="preserve"><style>.st0{fill:#072c4a}.st1{fill:#cb3709}</style><path class="st0" d="M30.2 33.6H9L4.1 46.8H0L17.7 0h3.8l17.7 46.8H35l-4.8-13.2zm-20-3.3H29L19.6 4.8l-9.4 25.5zM50.5 46.8h-3.9V0h3.9v46.8z"/><path class="st1" d="M60.7 2.6c0-.7.2-1.3.7-1.8.5-.5 1.2-.8 2-.8s1.5.3 1.9.8c.5.4.7 1.1.7 1.8s-.2 1.3-.7 1.8c-.5.5-1.1.7-1.9.7s-1.5-.2-1.9-.7c-.5-.5-.8-1.1-.8-1.8zM61.4 12h3.9v34.7h-3.9z"/><path class="st0" d="M96.5 46.1c-.4-1.1-.6-2.7-.7-4.8-1.3 1.8-3.1 3.1-5.2 4.1-2.1 1-4.3 1.4-6.6 1.4-3.3 0-6-.9-8.1-2.8-2.1-1.9-3.1-4.2-3.1-7.1 0-3.4 1.4-6.1 4.2-8 2.8-2 6.7-3 11.8-3h7V22c0-2.5-.8-4.4-2.3-5.9-1.5-1.4-3.8-2.1-6.7-2.1-2.7 0-4.9.7-6.6 2.1-1.8 1.4-2.6 3-2.6 4.9h-3.9c0-2.8 1.3-5.2 3.9-7.2 2.6-2 5.7-3 9.5-3 3.9 0 6.9 1 9.2 2.9 2.2 1.9 3.4 4.6 3.5 8.1v16.4c0 3.4.4 5.9 1.1 7.5v.4h-4.4zm-12.1-2.8c2.6 0 4.9-.6 6.9-1.9 2-1.2 3.5-2.9 4.4-5v-7.6h-6.9c-3.8 0-6.8.7-9 2.1-2.2 1.4-3.2 3.2-3.2 5.6 0 1.9.7 3.6 2.2 4.8 1.5 1.4 3.3 2 5.6 2zM130.6 37.3c0-1.9-.8-3.4-2.3-4.6-1.5-1.2-3.8-2.1-6.9-2.7-3.1-.7-5.5-1.4-7.2-2.2-1.7-.8-3-1.9-3.8-3.1-.8-1.2-1.2-2.7-1.2-4.4 0-2.7 1.1-5 3.4-6.8 2.3-1.8 5.2-2.7 8.8-2.7 3.9 0 7 1 9.3 2.9 2.3 1.9 3.5 4.4 3.5 7.5h-3.9c0-2-.9-3.7-2.6-5.1-1.7-1.3-3.8-2-6.4-2-2.5 0-4.6.6-6.1 1.7s-2.3 2.6-2.3 4.4c0 1.7.6 3.1 1.9 4 1.3 1 3.6 1.8 7 2.6s5.9 1.6 7.6 2.5c1.7.9 2.9 2 3.7 3.2.8 1.3 1.2 2.8 1.2 4.6 0 2.9-1.2 5.3-3.5 7-2.4 1.8-5.5 2.6-9.3 2.6-4 0-7.3-1-9.8-2.9-2.5-2-3.8-4.4-3.8-7.4h3.9c.1 2.2 1.1 4 2.8 5.2s4.1 1.9 6.9 1.9c2.7 0 4.8-.6 6.5-1.8 1.8-1.1 2.6-2.6 2.6-4.4z"/></svg>